<?xml version="1.0" encoding="UTF-8"?><svg id="uuid-0909baeb-26a2-4cd8-8422-65e21eff7ccd" xmlns="http://www.w3.org/2000/svg" width="789.2" height="319.07" viewBox="0 0 789.2 319.07"><defs><style>.uuid-69ee345c-9ced-4ab4-b45e-9f2a492f257c{fill:#782a8b;}.uuid-69ee345c-9ced-4ab4-b45e-9f2a492f257c,.uuid-37e042e6-ce2f-493e-9f02-ad724c212a1d{stroke-width:0px;}.uuid-37e042e6-ce2f-493e-9f02-ad724c212a1d{fill:#fff;}</style></defs><path class="uuid-37e042e6-ce2f-493e-9f02-ad724c212a1d" d="M653.38,85.25h-34.82c-46.1,0-79.71,30.04-79.71,74.06s33.61,74.36,79.71,74.36h34.82c46.1,0,79.71-30.34,79.71-74.36s-33.61-74.06-79.71-74.06ZM653.38,188.46h-35.12c-17.55,0-30.04-11.9-30.04-29.15s12.49-28.85,30.04-28.85h35.12c17.25,0,30.04,11.6,30.04,28.85s-12.79,29.15-30.04,29.15ZM207.39,205.42s-.05.04-.09.06l.07-.07h.01ZM320,235.3h-34.72c-8.48,0-14.94,2.16-19.3,6.39l-54.69,54.69-35.12-35.12s41.7-44.27,57.24-57.24c.02-.02.06-.04.09-.06,12.01-9.1,28.02-15.33,48.88-15.55.4-.01.8-.01,1.21-.01h3.21s33.21,0,33.21,0c3.67,0,7.12-.28,10.3-.95,7.37-1.98,13.37-6.45,17.05-12.65,2.58-4.34,4.02-9.54,4.02-15.34,0-6.47-1.8-12.14-4.96-16.71-.01-.01-.02-.02-.02-.04-2.46-3.54-5.73-6.41-9.62-8.46-4.1-1.97-9.08-3.13-14.87-3.64-.19,0-.38,0-.57,0h-14.5s-20.62,0-20.62,0c-.85,0-1.67.02-2.5.08v-45.25h0s.14-.01.4-.01c.79-.02,1.59-.03,2.39-.03h34.83c3.34,0,6.61.16,9.8.48.03,0,.06,0,.09,0,31.91,3.1,56.5,21.29,65.79,48.48,2.62,7.69,4.03,16.11,4.03,25.1,0,15.88-4.38,29.99-12.15,41.54,0,0-.01.02-.02.03-13.62,22.23-38.62,34.27-68.87,34.27ZM137.14,83.77h34.72c8.48,0,14.94-2.16,19.3-6.39l54.69-54.69,35.12,35.12s-41.7,44.27-57.24,57.24c-.02.02-.06.04-.09.06-12.01,9.1-28.02,15.33-48.88,15.55-.4.01-.8.01-1.21.01h-3.21s-33.21,0-33.21,0c-3.67,0-7.12.28-10.3.95-7.37,1.98-13.37,6.45-17.05,12.65-2.58,4.34-4.02,9.54-4.02,15.34,0,6.47,1.8,12.14,4.96,16.71.01.01.02.02.02.04,2.46,3.54,5.73,6.41,9.62,8.46,4.1,1.97,9.08,3.13,14.87,3.64.19,0,.38,0,.57,0h14.5s20.62,0,20.62,0c.85,0,1.67-.02,2.5-.08v45.25h0s-.14.01-.4.01c-.79.02-1.59.03-2.39.03h-34.83c-3.34,0-6.61-.16-9.8-.48-.03,0-.06,0-.09,0-31.91-3.1-56.5-21.29-65.79-48.48-2.62-7.69-4.03-16.11-4.03-25.1,0-15.88,4.38-29.99,12.15-41.54,0,0,.01-.02.02-.03,13.62-22.23,38.62-34.27,68.87-34.27Z"/><path class="uuid-69ee345c-9ced-4ab4-b45e-9f2a492f257c" d="M485.03,85.25c-47.38,0-72.88,24.71-74.02,67.75-.03,1-.04,2.02-.04,3.04v32.38h49.67v-32.68c0-16.95,8.63-25.28,25.58-25.28h40.45v-45.21h-41.64Z"/></svg>